<?xml version="1.0" encoding="UTF-8"?>
<svg id="Calque_2" data-name="Calque 2" xmlns="http://www.w3.org/2000/svg" viewBox="0 0 266.5 231.45">
  <defs>
    <style>
      .cls-1 {
        fill: #a8454f;
      }

      .cls-2 {
        fill: #b9ddcb;
      }

      .cls-3 {
        fill: #ebc445;
      }
    </style>
  </defs>
  <g id="Calque_8" data-name="Calque 8">
    <g>
      <path class="cls-2" d="m69.63,35.04c2.49.02,5.01.04,7.51.07-1.26-.03-2.51-.08-3.79-.16-1.64-.05-2.5.02-3.73.09Z"/>
      <path class="cls-2" d="m85.43,35.18c.4,0,.79-.02,1.14-.03-.82,0-1.65,0-2.47.01.45,0,.91,0,1.33.01Z"/>
      <path class="cls-2" d="m97.18,35.16c-2.31-.04-4.52-.04-6.66-.03,1.89.04,4.08.05,6.66.03Z"/>
      <path class="cls-2" d="m86.63,35.15s-.03,0-.05,0c1.3,0,2.6-.02,3.95-.02-1.41-.03-2.67-.07-3.76-.13.8.06,1.2.12-.13.15Z"/>
      <path class="cls-2" d="m86.76,35c-.78-.05-2.01-.12-2.43-.15.71.05,1.52.1,2.43.15Z"/>
      <path class="cls-2" d="m90.07,33.73c1.32-.03,1.01.33,3.62.27,6.12-.06,11.36-.19,17.09-.16.71-.02,1.52,0,2.39.04.06-.08.11-.15.17-.23-5.17,0-10.24,0-16.05,0-10.13.09-19.86.17-30.23.26-2.9,0-5.61-.05-8.35-.09,3.56.08,7.21.15,11.26.24,5.33.14,11.76-.29,20.1-.32Z"/>
      <path class="cls-2" d="m18.21,34.36c5.83.3,11.95.24,18.08.17-.89-.07-1.8-.13-2.72-.2-3.28,0-3.84.09-1.35.18-6.92-.25-13.49-.33-20.22-.33.43.1.34.22,2.28.28,1.3-.03,3.92-.1,3.92-.1Z"/>
      <path class="cls-2" d="m66.58,124.32l-2.54-.07.17.05,2.38.04s-.01-.02-.02-.03Z"/>
      <path class="cls-2" d="m65.31,123.89c.32,0,.67.02,1.04.04-.04-.07-.08-.13-.12-.2-.39.05-.85.1-.92.16Z"/>
      <polygon class="cls-2" points="64.95 124.51 64.21 124.3 63.82 124.29 64.95 124.51"/>
      <path class="cls-2" d="m151.28,35.19c-.54-.71-.81-.93-.41,0,.14,0,.27,0,.41,0Z"/>
      <path class="cls-2" d="m203.82,113.3c.16.25.32.52.49.85-.14-.3-.27-.62-.42-.96-.03.04-.05.07-.08.11Z"/>
      <path class="cls-2" d="m18.2,46.06c-4.86-7.34-7.37-10.68-8.56-11.88.8,0,1.59,0,2.37,0-.03-.01-.09-.02-.14-.03-.75,0-1.5.01-2.25.01-.81-.81-1-.61-.89,0-.3,0-.61,0-.91,0,.05,0,.1,0,.15,0,.26,0,.51,0,.77,0,.19,1.05,1.2,3.27,1.42,3.69,6.66,13.35,13.59,23.08,28.52,48.39-7.11-12.21,9.21,13.27,18.9,30.24.76-1.13,1.53-2.26,2.28-3.37-.78-1.3-1.55-2.59-2.33-3.9-10-16.68-29.33-47.27-39.32-63.18Z"/>
      <path class="cls-2" d="m204.53,114.57c-.07-.16-.14-.28-.21-.42.07.14.14.29.21.42Z"/>
      <path class="cls-2" d="m62.02,124.41l.93.05c-.13-.07-.5-.13-1.02-.2.03.05.06.1.09.15Z"/>
      <path class="cls-2" d="m38.67,86.27c.4.68.86,1.47,1.41,2.4-.48-.81-.95-1.61-1.41-2.4Z"/>
      <path class="cls-2" d="m238.61,33.91c-13.5-.08-25.13-.03-36.26.06,12.44,0,21.53,0,35.4,0,9.25.04-6.44.43-12.56.49-2.62.07-6.74-.37-9.36-.3-5.7-.04-10.94.09-17.06.16-2.63.06-2.32-.3-3.63-.27-8.34.03-14.78.46-20.11.32-4.05-.09-7.7-.16-11.26-.24-2.25-.03-4.49-.07-6.87-.07-1.22.02-2.48.03-3.75.05.03.04.05.08.08.12.06.09.11.18.17.27.15.24.3.47.45.7,7.05.05,13.99.1,20.84.15,1.23-.06,2.09-.14,3.74-.09,1.25.07,2.51.12,3.75.15,2.34.02,4.67.04,6.98.06.81,0,1.63,0,2.46-.01.01,0,.05,0,.07,0,1.31-.03.92-.09.11-.15-.9-.04-1.73-.1-2.44-.15.45.03,1.65.1,2.44.15,1.1.05,2.33.1,3.76.13.97,0,1.96,0,2.97,0-.81,0-1.64,0-2.47.01-.17,0-.34,0-.5,0-1.07,0-2.1.01-3.12.02-.01,0-.02,0-.04,0,0,0,0,0,0,0-.26,0-.53,0-.79,0-.37,0-.75.02-1.14.03,5.33.05,10.63.1,15.94.15,1.22,0,2.39,0,3.34,0,3.85-.02,7.68-.05,10.05.14.94,0,1.89.02,2.85.03-.18-.01-.37-.02-.55-.04.42.02.78.03,1.07.04,4,.04,8.02.08,12.06.12l20.64.22-1.02,1.5c-6.62,9.78-13.11,19.38-19.55,28.9-6.5,9.64-12.94,19.2-19.42,28.81-3.88,5.76-7.78,11.53-11.7,17.35l1.69,3.07c7.46-11.19,15.08-22.57,22.95-34.25,8.73-13.03,16.07-24.64,23.25-35.7,1.03-1.54,2.07-3.1,3.11-4.65,1.59-2.36,3.18-4.71,4.75-7.03-7.71-.09-15.13-.17-21.35-.24Zm16.23,4.28c-.56.76-1.11,1.5-1.62,2.2.28-.44.55-.87.81-1.29.23-.35.45-.7.67-1.04.44-.67.88-1.31,1.33-1.95-1.86-.05-3.52-.15-5.6-.26.48,0,.98,0,1.49,0,.49,0,.99,0,1.5,0,1.01,0,2.05.02,3.06.04-.55.79-1.11,1.58-1.64,2.31Z"/>
      <path class="cls-2" d="m194.33,127.38c1.71-.07,2.85-.11,3.94-.13.04-.06.09-.13.13-.19-1.33,0-2.49.04-3.89.06-.06.09-.12.17-.18.26Z"/>
      <path class="cls-2" d="m176.02,154.53c-1.14,1.69-2.28,3.36-3.42,5.04l2.09,3.05c7.74-11.59,15.47-23.22,23.34-35.03-1.24-.03-2.5-.05-3.81-.06-5.95,8.83-12,17.79-18.2,26.99Z"/>
      <path class="cls-2" d="m195.28,125.97s-.04.06-.06.09l1.77.09-.65.02.69.2c-.4-.28.65-.27,1.95-.19.02-.03.04-.07.07-.1-1.09-.1-2.34-.16-3.76-.11Z"/>
      <path class="cls-2" d="m132.16,218.98c-.86,1.26-1.72,2.52-2.58,3.77-.39.56-.78,1.12-1.16,1.67-.33-.55-.66-1.09-.98-1.63-.76-1.24-1.53-2.47-2.29-3.71-1.52-2.46-3.04-4.92-4.55-7.37-3.03-4.89-6.05-9.74-9.05-14.58-4.91-7.89-9.79-15.73-14.67-23.58h-4.7c7.88,12.47,15.89,25.11,23.22,37.14,1.69,2.77,3.43,5.59,5.24,8.49,2.47,3.95,5.02,8.03,7.66,12.27,2.29-3.41,4.67-6.95,7.12-10.6,10.94-15.98,21.48-31.64,31.96-47.3h-4.27c-10.51,15.47-20.79,30.56-30.96,45.43Z"/>
      <path class="cls-2" d="m63,126.1c5.83,10.11,12.77,21.37,20.12,33.07l2.54-3.72c-5.96-9.64-11.94-19.38-17.96-29.31-1.57,0-3.17-.02-4.7-.05Z"/>
    </g>
  </g>
  <g id="Calque_7" data-name="Calque 7">
    <polygon class="cls-1" points="174.7 162.62 172.61 159.57 150.53 127.3 150.44 127.17 150.16 126.77 148.29 124.02 127.73 93.97 107.16 124.04 105.77 126.07 85.66 155.46 83.12 159.18 73.28 173.56 92.18 173.56 96.89 173.56 163.12 173.56 167.39 173.56 182.17 173.56 174.7 162.62"/>
  </g>
  <g id="Calque_4" data-name="Calque 4">
    <g>
      <path class="cls-3" d="m127.38,13.66c-.16.21-.35.49-.48.66-.14.3.07,0,.48-.66Z"/>
      <path class="cls-3" d="m125.97,14.39l.3-.42c-.09.12-.19.26-.3.42Z"/>
      <path class="cls-3" d="m126.27,13.97c.74-1,.83-.85,1.73-2.41l-1.73,2.41Z"/>
      <polygon class="cls-3" points="127.04 13.54 125.93 15.23 127.09 13.76 127.04 13.54"/>
      <path class="cls-3" d="m102.44,123.65l-.45-.23c-.19.09.06.16.45.23Z"/>
      <path class="cls-3" d="m96.01,123.65h-1.56c.52.03,1.07.02,1.56,0Z"/>
      <path class="cls-3" d="m85.47,78.55c-.6.76-1.39,1.76-2.23,2.81.55-.54.91-.6,2.23-2.81Z"/>
      <path class="cls-3" d="m152.06,126.74l-.38.12c.99,0,.79-.06.38-.12Z"/>
      <path class="cls-3" d="m86.89,123.8l1.27.08s.07,0,.09-.01c-.24-.07-.68-.09-1.36-.07Z"/>
      <path class="cls-3" d="m165.57,127.38c-.46-.12-.99-.2-1.54-.28-.21.09.35.21,1.54.28Z"/>
      <path class="cls-3" d="m102.64,126.29c-.72-.03-1.35-.05-2.02-.08.45.06,1.16.1,2.02.08Z"/>
      <path class="cls-3" d="m82.53,82.25c.24-.3.47-.59.71-.89-.2.2-.42.45-.71.89Z"/>
      <path class="cls-3" d="m122.01,22.23c-.32.32-.67.75-1.05,1.25.2-.13.43-.31,1.05-1.25Z"/>
      <path class="cls-3" d="m133.57,8.02c-.06-.1-.13-.22-.24-.38l.24.38Z"/>
      <path class="cls-3" d="m156.6,44.82c-.04-.15-.13-.34-.21-.53-.07.03-.02.23.21.53Z"/>
      <path class="cls-3" d="m150.44,127.17l.09.13c1.38,0,2.03-.05.52-.2.08.05-.18.08-.61.08Z"/>
      <path class="cls-3" d="m184.7,81.74c-.05-.11-.12-.24-.21-.41l.21.41Z"/>
      <path class="cls-3" d="m123.74,18.85c-.52,1.1-2.51,4.15-3.04,4.57-.1-.45,2.12-3.43,2.99-4.79-4.03,5.9-4.61,5.7-7.72,10.84l.67-.79c-.96,1.73-2.13,3.39-3.29,4.97-.06.08-.11.15-.17.23-.97,1.32-1.92,2.6-2.72,3.82.44-.81.42-1.03.12-.69-3.75,6.2-7.91,12.07-12.33,19.07l-1.71,1.91.17.26c-2.13,3.44-.84.55-2.26,2.74.55-.83.49-.66.67-.8-2.89,3.78-1.21,2.3-2.75,4.47.97-.91,2.91-4.2,2.62-3.03-2.88,3.77-6.76,9.95-7.75,10.2-4.57,7.4-10.93,16.22-15.04,22.31-.45.89.43-.48.3-.11-1.96,2.24-5.13,8.24-5.47,8.12-.69,1.21-.78,1.82-.9,2.18-1.18,1.47-2.49,3.29-3.83,5.24l1.04-1.4-.06.18-1.48,1.98.03-.09c-.64.94-1.3,1.91-1.96,2.9-.75,1.11-1.52,2.24-2.28,3.37-.14.21-.29.42-.43.63-.81,1.18-1.61,2.35-2.39,3.49-1.22,1.79-2.46,3.57-3.73,5.36.96.04,1.87.07,2.77.11-2.7-.12-2.07-.22-1.27-.3.6-.06,1.3-.11,1.25-.16.89.11,2.17.19,3.74.27.68.03,1.41.07,2.18.11.66.03,1.36.05,2.08.07.4.01.81.02,1.22.03,1.53.03,3.13.05,4.7.05,1.05,0,2.08,0,3.08,0-.02-.11.42-.19-.25-.28l3.35.23-.44-.13c6.01-.06,12.54.56,16.51.34-2.45-.08-2.46-.18-2.71-.36,4.3.04,8.36.07,13.39.26-.27-.03-.44-.07-.45-.11,1.32-.04,2.9.1,4.25.17l.18-.26c.37.02.77.03,1.17.04l1.39-2.03c-1.88-.13-3.85-.23-4.72-.38h.02s-4.94-.25-4.94-.25c1,.05-.08.2-1.52.25h.23c-1.57.08,1.86.63-2.85.44l-2.47-.18c.44.02.02.11-.22.15l-2.55-.17c-3.9.51-7.35-.35-11.94-.12,1.32-.04,3.34.02,2.47.18-.89.06-2.23-.01-2.92-.1l.23.07-8.74-.41c.71.2,5.6.24,3.41.45-1.03.2-2.84.06-4.33-.03-.37-.02-.73-.04-1.04-.04.08-.06.54-.11.92-.16.55-.07.94-.13-.11-.18-.17,0-.38-.02-.64-.03-.36.07-3.14.21-1.83.33-.62-.04-1.3-.07-2.01-.1-.95-.04-1.96-.09-2.96-.14l-.33-.02-.2-.02c-.12-.01-.23-.02-.35-.03-.22-.02-.43-.04-.62-.07-.38-.05-.67-.1-.84-.17.04-.05.07-.08.11-.11.04-.15-.11,0-.28.2.08.02.19.03.26.04l.18-.04c.37.04.3.14.4.21.05.03.14.06.37.07.11,0,.26,0,.44,0,.21,0,.46-.02.77-.03.05.08-.07.14-.29.18-.16.04-.41.06-.72.07-.63.02-1.49-.01-2.3-.04.48-.67.93-1.31,1.25-1.83-.49.59-1.05,1.27-1.67,2.05l.99.1c-.44.04-.9.07-1.39.09.66-1.24,1.65-2.83,2.79-4.59.37-.56.75-1.13,1.14-1.7.76-1.12,1.54-2.25,2.33-3.37.03-.04.05-.08.08-.12,2.43-3.46,4.89-6.85,6.86-9.81-1.07,1.92-2.24,3.39-1.71,3.37,2.77-3.81,2.35-3.34,5.01-7.2l-.24.32c1.14-2.11,3.34-4.67,3.87-6.17-.79.76-1.7,2.96-2.15,2.79l3.29-4.9c-1.27,1.42-3.29,4.9-4.59,6.74-.87,1.36,1.86-2.69,1.71-1.9-3.05,4.58-4.02,5.49-5.91,7.54-1.2,1.22,1.03-2.16,1.59-3.01,2.37-2.69,5.4-6.86,8.22-11.51l1.33-2.66c1.78-2.1,1.72-.85,4.35-4.96l-1.04,1.1c.5-.94.86-1.54,1.15-1.97-1.33,1.66-2.78,3.44-4.01,4.93,1.04-2.57,4.65-6.52,7-9.88-.18.14-.99,1.32-1.35,1.61,3.25-5.14,7.35-10.15,10.02-14.03.88-1.77-2.3,3.18-2.08,2.21,1.49-2,2.75-4.47,3.41-4.87-1.02.68,3.11-4.75.1-1.01,4.74-7.52,10.54-15.5,15.76-22.89-.37.3-.47.25-.35-.11-1.68,2.54-4.27,6.21-5.5,7.47.89-1.78,2.9-3.8,3.1-4.35-.67.8-1.79,2.49-2.02,2.41,1.2-2.3,2.35-3.34,3.4-4.85l-.44.89c2.81-3.78,2.69-2.89,4.31-5.23.01-.02.02-.04.04-.05.12-.17.25-.37.39-.58.06-.09.12-.18.19-.28.23-.36.5-.77.8-1.24.96-1.97-.22-.09-.56-.22.92-1.13,3.12-5.16,4.28-6.23l-2.01,3.08c1.51-2.1,2.86-4.13,3.95-5.56-.17.12-.32.21-.65.65,1.23-1.65,2.66-3.86,3.45-4.62l-.02-.65Zm-54.48,106.05s0,.04.01.06c-.04-.02-.05-.04-.01-.06Zm16.37.81l-4.52.12c-.39.03-.87.05-1.46.04l1.46-.04c1.73-.14,2.1-.55,4.52-.12Zm-9.7-.89c3.59.19,3.84.36,6.57.72-3.56.13-4.52-.35-4.1-.54-2.47-.19-2,.06-3.32.09l.85-.28Zm-11.88-.58l2.54.07,3.49.09-3.48-.07-2.38-.04.74.21-1.13-.22h.39s-.17-.04-.17-.04Zm-5.86-.21c.18,0,.36,0,.54.01.19,0,.38.01.56.02.37.01.73.03,1.06.05.61.04,1.15.09,1.59.14.52.06.89.13,1.02.2l-.93-.05-2.65-.14,1.8.2-2.7-.2c-.82-.07-1.51-.13-2.16-.19.66-.04,1.27-.05,1.86-.04Zm-.34.52c.93.07,1.65.17,1.37.29-1.13-.06-1.4-.11-1.36-.16.02-.05.26-.09-.01-.13-.56-.04-1.14-.08-1.7-.09,1.03.03,1.49.06,1.7.09Zm-5.49.76c1.99,0,3.59,0,3.12,0-.33.09-1.76.12-3.37.12.93-1.42,2.08-3.09,2.57-3.71-.55.84-1.5,2.31-2.32,3.59Zm2.55-4.26c-.2.32-.27.41-.27.38,0-.06.31-.64.37-.85l-1.28,1.68c.58-.87.92-1.34,1.1-1.57.05-.06.08-.1.11-.13.02-.02.04-.03.05-.03.02,0,.03.01.02.05l.72-.88c-.38.64-.57.96-.82,1.35Zm22.83-33.11c-1.58,2.28-4.38,6.7-5.38,8.53-.02.13-.11.34-.37.74.04-.13.19-.41.37-.74.01-.13-.09-.11-.27.04-.24.32-.47.6-.62.71.2-.3.44-.57.62-.71.64-.85,1.48-2.18,1.8-2.82-.36.29-1.24,1.66-1.67,2.14,1.03-2.17,4.93-6.22,3.21-5.38.67-.8,2.83-3.6,2.31-2.51Zm9.18-13.49l.21-.57.8-1.17-1.01,1.74Zm14.26-21.95l.4-1.11.97-.91-1.37,2.03Z"/>
      <path class="cls-3" d="m213.17,126.31c.1.27.44.89.61,1.25-.69-.05-1.05-.1-.27-.14-.02,0-.22-.27-.47-.63-.35-.83-1.91-3.25-3.15-5.19-.21-.33-.4-.64-.58-.91-.14-.22-.25-.41-.33-.56-.16-.3-.18-.42.03-.26-1.19-1.64-1.68-1.78-2.39-2.8l-.71-1.28-1.69-3.07-.84-1.53.05.21c-6.93-9.28-11.04-18.27-17.57-27.79l-.05.27-1.09-2.14c.55,1.13-.97-1.13-1.19-1.2l-3.6-6.39c-.24-.07-.35.47.7,1.96-1.69-2.27-2.89-4.88-4.19-6.95l.3.77-1.2-2.13-.2.13c-2.09-3.47-5.03-7.61-5.5-9.03l-.08.57-2.06-3.76,1.1,2.19c-2.68-4.04-6.39-10.37-6.95-11.24l.11.43c-.49-.63-.75-1.2-1.15-1.92l.15.63c-3.01-4.77-4.59-6.73-7.09-10.6-.15-.23-.3-.46-.45-.7-.06-.09-.11-.18-.17-.27-.03-.04-.05-.08-.08-.12-.54-.86-1.14-1.81-1.79-2.9-1.24-1.85.6,1.07.51,1.15-.81-.95-2.2-3.42-2.45-3.98.05.69,1.99,3.54.35,1.46-.85-1.63.41,1.2-1.29-1.57l-.31-1.26c-1.04-1.49-.49-.16-2-2.59-1.6-2.84,2.59,3.16-.19-1.31-1.45-2.21-3.88-4.24-6.44-8.65-2.58-3.62.66,2.25-2.54-2.94l1.86,3.42c-.65-.8-.5-.17-1.85-2.43-.3-.78-1-2.25-1.75-3.46,2.8,4.96-3.14-4.01-.64.66l-1.06-1.68c.12.22.12.29.02.19l-1.2-1.83c.23-.34.44-.67.64-.97-.17.1-.43.38-.76.8l-.13-.2c.04.07.08.14.12.22-.1.13-.21.27-.32.42l-.34-.51c.34.96-.5-.17-.55.1l.53.91c-1.39,1.98-3.3,5.08-4.2,6.51,1.25-1.68,2.93-4.16,4.34-6.27l4.98,8.52c-.11-.43-.9-1.84-.45-1.4,1.73,2.47,1.09,2.18,2.79,4.46l-.5-1.13c.06.22.25.56-.1.06-.64-.78-.75-1.21-.65-1.27.75.73,2.14,3.19,2.45,3.98,2,3.06.79.44,1.29,1.09.66,1.77,3.3,5.13,4.35,7.12l-.55-1.34c1.78,2.2,2.89,4.41,3.69,5.82l-.15-.63c.35.55.68,1.04,1,1.5.06.09.13.18.19.27.19.26.37.51.55.75,1.25,1.67,2.26,2.9,2.9,4.87l-.09-.41c.92,1.31,2.36,3.26,2.98,4.64.1-.01.34.17.71.7.2.85,1.29,2.14,2.6,4.09-.77-1.34-.16-1.09-.96-2.51,2.29,2.87,1.41,2.97,3.05,5.52,1.15,1.44-.69-1.47-.8-1.9,2.34,4.03,5.97,7.71,6.89,10.53l-1.3-1.58c.86,1.64,1.4,2.49,1.34,2.27-.35-.49-.39-.69-.44-.9,3.38,4.56,4.24,7.65,7.44,12.36-.1-.42-.5-1.12-.41-1.2,1.54,2.13.72,2.47,3.25,5.89l-.3-.77c.74,1,1.1,1.88,1.08,1.99.72.02,4.79,7.56,7.1,9.63.8,1.9,3.75,7,4.89,8.44,1.74,2.01-.86-2.12-.02-1.47,1.1,1.71,1.36,2.77,3.1,5.26-.29.2-3.88-4.71-.99.17l.6.59c-.34-.49-.84-1.13-1.25-1.85-.7-1.48.75.73,1.04,1l3.2,5.2c-.1.55-1.99-2.57-2.28-2.85,2.66,4.01,6.27,8.63,8.47,12.51.02.03.03.05.05.08l-.03-.11-.08-.31c.05.08.09.15.13.23.89,1.56,1.45,2.34,1.86,2.84.82.99,1.1.86,2.35,3.55,1.36,1.94-.06-.84,1.82,2.03.52.81,0,.27-.14.14.36.62.63,1.04.85,1.36-.82.01-.93.08-1.29.12-.35.03-1,.02-2.65-.11.32.12.61.25.99.37-2.2-.12-4.42-.29-6.61-.46-1.24-.09-2.47-.18-3.66-.25-1.91-.11-3.75-.17-5.47-.13.28.28,3.16.27,4.31.5-6.32-.55-15.16-.16-21-.47,1.75-.23-2.76-.57.98-.75.96.37,2.72.14,4.72.2-3.23-.81-13.54.3-14.53-.4l-.86.28c-.9-.05-3.17-.27-1.6-.35l-6.45.14c2.26.23,7.03.75,8.53.45,1.83.31-2.64.18-1.02.53-4.31-.5-2.65.18-7.12.05,2.02-.39-4.44-.58-4.24-.78-.93.04-2.6-.03-4-.12l1.88,2.74c.44-.03.82-.08,1.03-.15.11.03.55.08.87.12l.48-.16c4.19.31,8.45.13,11.5.52.18-.08.91-.14,2.35-.11l.06.32,4.46.02-2.08-.48c4.89-.06,8.33.49,12.34.6,1.04-.53,7.84.25,11.32-.2l-3.14-.17c2.2.05,3.79.04,5.16.03,1.39-.02,2.56-.05,3.89-.06,1.35,0,2.87,0,4.98.08-2.37.07-3.69.08-5.11.11-1.08.02-2.23.06-3.94.13-1.08.05-2.37.11-4.02.19,1.37-.03,2.66-.04,3.92-.03,1.31,0,2.58.03,3.81.06.78.02,1.56.04,2.33.06,1.57.04,3.11.08,4.68.1,1.43,0,2.87.01,4.33.02,1.59,0,3.19,0,4.77-.03-.31-.46-.64-.95-.97-1.44ZM133.74,9.32l-1.66-2.47c.1-.15.2-.29.29-.44.89,1.54,2.51,4.17,1.37,2.91Zm10.97,14.17l.59,1.05c.25.57-.05.28,0,.49-.75-1.21-1.6-2.84-.6-1.54Zm9.13,15.23c-.32-.44-.69-.95-1.07-1.48-.44-.24.79,1.98,1.03,2.6-.59-1.05-.94-2.04-1.94-3.32.05.21-.1.06.45.91l-1.24-1.84c-.07-.15-.13-.29-.18-.4-.4-.93-.14-.7.41,0,.4.52.94,1.29,1.48,2.05.09.04.23.17.53.52.24.3.37.62.53.96.3.4.56.74.71.88l.06.22c-.38-.37-.59-.75-.76-1.1Zm11.02,13.77c-1.84-2.43-1.11-2.2-2.05-3.76,1.49,1.92.9,1.83,2.05,3.76Zm-.4-.22c.3.29,1.19,1.64,1.79,2.7-1.15-1.43-1.2-1.65-1.79-2.7Zm4.86,10.65c-.15-.63.5.64.95,1.08l1.94,3.33c-.79-.44-1.85-2.92-2.89-4.41Zm15.23,23.76c.19-.14-1.8-3.19-2-3.55-.05-.67.55.49,1.46,1.56-.32-.32.4,1.24,1.38,2.64l-.84-.65Zm2.39,3.77c1.25,1.86,2.55,3.92,2.99,4.34-.04.29-2.74-3.29-2.99-4.34Zm14.21,19.07c-1.75-2.51.45,1.4-.74-.23l.88,1.33c-1.63-2.06-.74-1.68-1.79-3.18l.7,1c.73.7-.86-1.64-.81-1.92.85,1.15,2.45,3.99,1.76,2.99Zm3.17,4.63c-.17-.32-.33-.6-.49-.85-.67-1.04-1.26-1.57-1.64-2.77.94,1,1.38,1.89,1.72,2.66.15.34.28.66.42.96.07.14.14.26.21.42-.08-.14-.15-.28-.21-.42Zm-10.6,10.87l-2.71-.14.23-.04,2.68.14-.2.04Zm-26.11-.37l1.37.18-2.44.03,1.07-.21Zm-6.47.98c-1.39-.01-1.79.02-1.64-.18-.67-.09-1.78.01-2.46-.08,2.71-.16,2.54.16,4.1.26.36,0,.78,0,1.29.03-.56,0-.95,0-1.29-.03Zm3.58,1.28c-.38.01-.78.02-1.22-.02l1.22.02c.98-.04,1.71-.17,1.92.04l-1.92-.04Zm5.24-1.39c-.72-.41-5.81-.2-6.94-.31,2.65-.07,8.66-.13,6.94.31Zm5.13,1.45c-.93-.16-4.03-.21-4.08-.43,2.7.25,4.62-.34,5.14.11-.91-.05-1.35-.07-2.02-.05.47.13,2.29.33.95.37Zm23.89-.79c-1.3-.08-2.35-.09-1.95.19l-.69-.2.65-.02-1.77-.09-.92-.05c.34-.02.66-.03.98-.04,1.43-.05,2.67.02,3.76.11,1.22.11,2.25.25,3.11.29-.73-.01-2.05-.13-3.17-.19Z"/>
      <path class="cls-3" d="m178.54,78.76s-.02,0-.03,0c.02.02.03.02.03,0Z"/>
      <path class="cls-3" d="m159.7,49.08c.2.35.46.76.89,1.38-.3-.49-.6-.95-.89-1.38Z"/>
      <path class="cls-3" d="m152.29,124.15c.39-.02.68-.05.75-.1-.52.04-.7.07-.75.1Z"/>
      <path class="cls-3" d="m121.31,23.86c-.6.61-.63,1.04-1.19,1.89.56-.85,2.16-2.8,1.19-1.89Z"/>
      <path class="cls-3" d="m117.98,28.28c-.6.86-1.13,1.55-1.54,2.01.76-.87,1.19-1.46,1.54-2.01Z"/>
      <path class="cls-3" d="m117.98,28.28c.63-.91,1.37-2.04,2.18-3.37-1.25,1.73-1.62,2.51-2.18,3.37Z"/>
      <path class="cls-3" d="m106.66,45.38c.04-.07.07-.11.07-.11-.02.04-.04.07-.07.11Z"/>
      <path class="cls-3" d="m104.62,48.29c1.29-1.43,1.51-1.34,3.38-4.04-.37.3-3.95,5.4-1.34,1.13-.27.43-1.3,2.08-2.04,2.91Z"/>
      <path class="cls-3" d="m100.68,54.06c.27-.38.53-.79.77-1.23-.2.35-.48.78-.77,1.23Z"/>
      <path class="cls-3" d="m97.56,58.34c.61-.62,1.15-1.06,2.2-2.56-.51.41.21-.64.92-1.72-.95,1.35-2.03,2.37-3.12,4.28Z"/>
      <path class="cls-3" d="m68.89,104.49l1.68-2.55c-.12-.03-.68.81-.93,1.15-.32.52-1.49,2.39-.75,1.4Z"/>
      <path class="cls-3" d="m61.5,114.02l.28.3c.74-1-.23-.08,1.13-2.1l-1.42,1.8Z"/>
      <path class="cls-3" d="m61.84,110.15l-.03.1c.16-.24.31-.46.47-.68l-.43.58Z"/>
      <path class="cls-3" d="m57.17,121.81c-.07.04-.15.09-.23.15-.07.09,0,.14.16.07.08-.03.18-.09.29-.17.02-.01.02-.01.05-.04.03-.03.05-.06.08-.09.06-.07.12-.14.18-.21.13-.15.27-.33.42-.54l-.67.6-.17.15c-.06.05-.08.05-.12.08Z"/>
      <polygon class="cls-3" points="58.76 123.17 60.33 123.3 61.4 123.31 63.67 123.32 61.36 123.25 58.76 123.17"/>
      <polygon class="cls-3" points="72.61 123.58 76.41 123.62 73.05 123.5 72.61 123.58"/>
      <path class="cls-3" d="m206.06,124.78c-.16.05-.35.09-.57.12-.28.02-.59.04-.9.04-.62,0-1.25-.01-1.85-.03-1.2-.04-2.27-.09-2.81.13,1.54-.08,7.04.1,6.13-.25Z"/>
      <path class="cls-3" d="m163.03,53.95c1.89,3.12.36.99,2.44,3.97l-2.44-3.97Z"/>
    </g>
  </g>
</svg>